<?xml version="1.0" encoding="utf-8"?>
<!-- Generator: Adobe Illustrator 21.1.0, SVG Export Plug-In . SVG Version: 6.00 Build 0)  -->
<svg version="1.1" id="Layer_1" xmlns="http://www.w3.org/2000/svg" xmlns:xlink="http://www.w3.org/1999/xlink" x="0px" y="0px"
	 viewBox="0 0 245 245" style="enable-background:new 0 0 245 245;" xml:space="preserve">
<style type="text/css">
	.st0{fill:#FFFFFF;}
</style>
<g>
	<path class="st0" d="M117.4,244.9l0.4-79.9l22.4-23.9v17.9c10.1-3.7,14.3-11.1,16.1-17.5c0.8-2.6,1.2-5.4,1.2-8.3c0-0.5,0-1,0-1.5
		c0-1-0.1-1.6-0.1-1.6c-0.9-10.2-7.6-13.9-10.4-15c-0.9-0.3-1.7-0.5-2.6-0.5c-4.8,0-9.7,4.5-11.3,5.9c-0.2,0.2-0.4,0.4-0.6,0.5
		l-15.2,15.2c-5.6,5.6-13.1,8.7-21.1,8.7c-4.4,0-8.7-0.9-12.9-2.6c-11.9-4.9-19.3-16-19.3-28.9l0.1-98.8C25.9,35.6,0,76,0,122.6
		C0,188.5,52.1,242.3,117.4,244.9z"/>
	<path class="st0" d="M174.8,205.9c-13.2-5.8-22-15-27.3-22l-5.9-9.1c-0.4-0.6-1.4-0.3-1.4,0.4v3.3c0,0,0,0,0,0l-0.2,65.4
		c28.4-4,53.7-17.8,72.3-37.9c-6.1,2-12.9,3.5-19.8,3.5C186.1,209.4,180.1,208.3,174.8,205.9z"/>
	<path class="st0" d="M91.9,121.6c1,0.4,2.6,0.9,4.4,0.9c2,0,3.6-0.7,5.1-2.1l15.9-15.9l0.2-0.2l0.1-0.1l0.1-0.1
		c3.8-3.6,14-12.1,26.9-12.1c3.7,0,7.4,0.7,10.9,2.1c14,5.6,23.2,18.3,24.5,34c1.4,16.2-4.3,31.3-15.4,41.4
		c3.6,4.5,10.2,11.5,19.5,15.7c2.8,1.3,6,1.9,9.4,1.9c24.5,0,43.8-23.1,43.8-23.1c5-13.3,7.7-26.6,7.7-41.6
		C245,54.9,190.2,0.1,122.5,0.1C110,0.1,98,1.9,86.6,5.4l-0.1,108.2C86.5,119,90.6,121.1,91.9,121.6z"/>
</g>
</svg>
