<?xml version="1.0" encoding="utf-8"?>
<!-- Generator: Adobe Illustrator 21.1.0, SVG Export Plug-In . SVG Version: 6.00 Build 0)  -->
<svg version="1.1" id="Layer_1" xmlns="http://www.w3.org/2000/svg" xmlns:xlink="http://www.w3.org/1999/xlink" x="0px" y="0px"
	 viewBox="0 0 290 290" style="enable-background:new 0 0 290 290;" xml:space="preserve">
<style type="text/css">
	.st0{fill:#FFFFFF;}
	.st1{fill:#FD5139;}
</style>
<g>
	<path class="st0" d="M247.5,42.5C220.1,15.1,183.7,0,145,0S69.9,15.1,42.5,42.5S0,106.3,0,145s15.1,75.1,42.5,102.5
		S106.3,290,145,290s75.1-15.1,102.5-42.5S290,183.7,290,145S274.9,69.9,247.5,42.5z M259.8,186.7c0,0-19.3,23.1-43.8,23.1
		c-3.4,0-6.6-0.7-9.4-1.9c-9.3-4.2-16-11.2-19.5-15.7c11.1-10.1,16.7-25.2,15.4-41.4c-1.3-15.7-10.5-28.4-24.5-34
		c-3.5-1.4-7.2-2.1-10.9-2.1c-12.9,0-23.1,8.5-26.9,12.1l-0.1,0.1L140,127l-0.2,0.2l-15.9,15.9c-1.5,1.5-3.1,2.1-5.1,2.1
		c-1.7,0-3.3-0.5-4.4-0.9c-1.3-0.5-5.4-2.6-5.4-8l0.1-108.2c11.3-3.5,23.4-5.3,35.9-5.3c67.7,0,122.5,54.8,122.5,122.5
		C267.5,160.1,264.8,173.3,259.8,186.7z M234.7,228.4c-18.6,20-43.9,33.8-72.3,37.9l0.2-65.4l0,0v-3.3c0-0.8,1-1.1,1.4-0.4l5.9,9.1
		c5.3,7.1,14.1,16.3,27.3,22c5.4,2.4,11.3,3.6,17.6,3.6C221.9,231.9,228.7,230.5,234.7,228.4z M22.5,145.1
		c0-46.5,25.9-87,64.1-107.7l-0.1,98.8c0,12.9,7.4,23.9,19.3,28.9c4.2,1.8,8.6,2.6,12.9,2.6c8,0,15.5-3.1,21.1-8.7l15.2-15.2
		c0.2-0.2,0.4-0.3,0.6-0.5c1.6-1.5,6.5-5.9,11.3-5.9c0.9,0,1.8,0.2,2.6,0.5c2.8,1.1,9.5,4.9,10.4,15c0,0,0.1,0.6,0.1,1.6
		c0,0.4,0,0.9,0,1.5c0,2.9-0.4,5.7-1.2,8.3c-1.8,6.4-6.1,13.8-16.1,17.5v-17.9l-22.4,23.9l-0.4,79.9C74.6,264.8,22.5,211,22.5,145.1
		z"/>
	<path class="st1" d="M140.3,187.6l22.4-23.9v17.9c10.1-3.7,14.3-11.1,16.1-17.5c0.8-2.6,1.2-5.4,1.2-8.3c0-0.5,0-1,0-1.5
		c0-1-0.1-1.6-0.1-1.6c-0.9-10.2-7.6-13.9-10.4-15c-0.9-0.3-1.7-0.5-2.6-0.5c-4.8,0-9.7,4.5-11.3,5.9c-0.2,0.2-0.4,0.4-0.6,0.5
		l-15.2,15.2c-5.6,5.6-13.1,8.7-21.1,8.7c-4.4,0-8.7-0.9-12.9-2.6c-11.9-4.9-19.3-16-19.3-28.9l0.1-98.8
		C48.4,58.1,22.5,98.5,22.5,145.1c0,65.9,52.1,119.7,117.4,122.4L140.3,187.6z"/>
	<path class="st1" d="M197.3,228.4c-13.2-5.8-22-15-27.3-22l-5.9-9.1c-0.4-0.6-1.4-0.3-1.4,0.4v3.3l0,0l-0.2,65.4
		c28.4-4,53.7-17.8,72.3-37.9c-6.1,2-12.9,3.5-19.8,3.5C208.6,231.9,202.6,230.8,197.3,228.4z"/>
	<path class="st1" d="M145,22.6c-12.5,0-24.5,1.9-35.9,5.3L109,136.1c0,5.4,4.1,7.5,5.4,8c1,0.4,2.6,0.9,4.4,0.9
		c2,0,3.6-0.7,5.1-2.1l15.9-15.9l0.2-0.2l0.1-0.1l0.1-0.1c3.8-3.6,14-12.1,26.9-12.1c3.7,0,7.4,0.7,10.9,2.1
		c14,5.6,23.2,18.3,24.5,34c1.4,16.2-4.3,31.3-15.4,41.4c3.6,4.5,10.2,11.5,19.5,15.7c2.8,1.3,6,1.9,9.4,1.9
		c24.5,0,43.8-23.1,43.8-23.1c5-13.3,7.7-26.6,7.7-41.6C267.5,77.4,212.7,22.6,145,22.6z"/>
</g>
</svg>
